<svg width="24" height="24" viewBox="0 0 24 24" fill="none" xmlns="http://www.w3.org/2000/svg"><path d="M12 3c-4.959 0-9 4.041-9 9s4.041 9 9 9a2.25 2.25 0 0 0 2.25-2.25 2.29 2.29 0 0 0-.576-1.503.475.475 0 0 1-.117-.297c0-.252.198-.45.45-.45H15.6c2.979 0 5.4-2.421 5.4-5.4C21 6.636 16.959 3 12 3Zm4.95 9.9c-.747 0-1.35-.603-1.35-1.35 0-.747.603-1.35 1.35-1.35.747 0 1.35.603 1.35 1.35 0 .747-.603 1.35-1.35 1.35Zm-2.7-3.6c-.747 0-1.35-.603-1.35-1.35 0-.747.603-1.35 1.35-1.35.747 0 1.35.603 1.35 1.35 0 .747-.603 1.35-1.35 1.35ZM5.7 11.55c0-.747.603-1.35 1.35-1.35.747 0 1.35.603 1.35 1.35 0 .747-.603 1.35-1.35 1.35-.747 0-1.35-.603-1.35-1.35Zm5.4-3.6c0 .747-.603 1.35-1.35 1.35-.747 0-1.35-.603-1.35-1.35 0-.747.603-1.35 1.35-1.35.747 0 1.35.603 1.35 1.35Z" fill="#000"/></svg>