<svg width="24" height="24" viewBox="0 0 24 24" fill="none" xmlns="http://www.w3.org/2000/svg"><path fill-rule="evenodd" clip-rule="evenodd" d="M16.221 5.23c.198-.15.424-.23.659-.23.621 0 1.12.53 1.12 1.19v11.67c0 .63-.47 1.13-1.054 1.14-.593 0-1.064-.51-1.064-1.13V8.059l-1.327 1.02c-.451.349-1.082.219-1.393-.27a1.085 1.085 0 0 1 .245-1.42l2.814-2.158ZM8 12h2c.55 0 1 .45 1 1s-.45 1-1 1H8v2c0 .55-.45 1-1 1s-1-.45-1-1v-2H4c-.55 0-1-.45-1-1s.45-1 1-1h2v-2c0-.55.45-1 1-1s1 .45 1 1v2Z" fill="#000"/></svg>