<svg width="24" height="24" viewBox="0 0 24 24" fill="none" xmlns="http://www.w3.org/2000/svg"><path d="M8.88 5c-.235 0-.461.08-.659.23L5.407 7.388c-.423.33-.536.95-.245 1.42.311.489.942.619 1.393.27l1.327-1.02v9.813c0 .62.471 1.129 1.064 1.129.583-.01 1.054-.51 1.054-1.14V6.19C10 5.53 9.501 5 8.88 5Zm9.027 8.501V7.927c0-.51-.41-.927-.91-.927a.92.92 0 0 0-.91.927v5.574h-1.63c-.41 0-.61.501-.32.789l2.54 2.578a.461.461 0 0 0 .647 0l2.54-2.578c.291-.288.082-.789-.319-.789h-1.638Z" fill="#000"/></svg>