<svg width="24" height="24" viewBox="0 0 24 24" fill="none" xmlns="http://www.w3.org/2000/svg"><path fill-rule="evenodd" clip-rule="evenodd" d="M19 3H5c-1.1 0-2 .9-2 2v13c0 1.1.9 2 2 2h5l3.15 3.15a.5.5 0 0 0 .85-.35V20h5c1.1 0 2-.9 2-2V5c0-1.1-.9-2-2-2Zm-3 13H8c-.55 0-1-.45-1-1s.45-1 1-1h8c.55 0 1 .45 1 1s-.45 1-1 1Zm0-4h-2c-.55 0-1-.45-1-1s.45-1 1-1h2c.55 0 1 .45 1 1s-.45 1-1 1Zm0-4h-2c-.55 0-1-.45-1-1s.45-1 1-1h2c.55 0 1 .45 1 1s-.45 1-1 1Zm-6 4H8c-.325 0-.544 0-.692-.103C7 11.684 7 11.026 7 9s0-2.684.308-2.897C7.456 6 7.675 6 8 6h2c.325 0 .544 0 .692.103C11 6.316 11 6.974 11 9s0 2.684-.308 2.897C10.544 12 10.325 12 10 12Z" fill="#000"/></svg>