<svg width="24" height="24" viewBox="0 0 24 24" fill="none" xmlns="http://www.w3.org/2000/svg"><path fill-rule="evenodd" clip-rule="evenodd" d="M3.293 2.293a.998.998 0 0 0 0 1.413L5.587 6H4c-.55 0-1 .45-1 1s.45 1 1 1h3.587l3 3H7c-.55 0-1 .45-1 1s.45 1 1 1h5.587l5.707 5.707a.998.998 0 1 0 1.413-1.413L15.413 13H17c.55 0 1-.45 1-1s-.45-1-1-1h-3.587l-3-3H20c.55 0 1-.45 1-1s-.45-1-1-1H8.413L4.706 2.293a.998.998 0 0 0-1.413 0ZM13 18h-2c-.55 0-1-.45-1-1s.45-1 1-1h2c.55 0 1 .45 1 1s-.45 1-1 1Z" fill="#000"/></svg>