<svg width="24" height="24" viewBox="0 0 24 24" fill="none" xmlns="http://www.w3.org/2000/svg"><path fill-rule="evenodd" clip-rule="evenodd" d="M12 2C6.475 2 2 6.359 2 11.74c0 4.31 2.862 7.95 6.838 9.241.5.086.687-.207.687-.462 0-.232-.013-.999-.013-1.814-2.512.45-3.162-.597-3.362-1.145-.113-.28-.6-1.144-1.025-1.376-.35-.182-.85-.633-.013-.645.788-.012 1.35.706 1.538.998.9 1.474 2.338 1.06 2.912.804.088-.633.35-1.06.638-1.303-2.225-.243-4.55-1.083-4.55-4.81 0-1.058.387-1.935 1.025-2.617-.1-.243-.45-1.242.1-2.581 0 0 .837-.256 2.75.998.8-.219 1.65-.328 2.5-.328.85 0 1.7.11 2.5.328 1.912-1.266 2.75-.998 2.75-.998.55 1.34.2 2.338.1 2.581A3.715 3.715 0 0 1 18.4 11.23c0 3.738-2.337 4.566-4.562 4.81.362.304.675.888.675 1.801 0 1.303-.013 2.35-.013 2.679 0 .255.188.56.688.462a10.001 10.001 0 0 0 4.932-3.553A9.585 9.585 0 0 0 22 11.74C22 6.36 17.525 2 12 2Z" fill="#000"/></svg>