<svg width="24" height="24" viewBox="0 0 24 24" fill="none" xmlns="http://www.w3.org/2000/svg"><path fill-rule="evenodd" clip-rule="evenodd" d="M3.131 6.635c-.009-.01-.027-.028-.036-.046V6.57a.598.598 0 0 1 .165-.817c.036-.027.082-.045.128-.064l.06-.013.06-.014a4.09 4.09 0 0 1 2.952.422 6.13 6.13 0 0 1 .574-.455l.031-.022c.037-.028.358-.239.66-.395a4.04 4.04 0 0 1 .67-2.906l.036-.05.037-.051.027-.028c.025-.027.049-.053.083-.073a.594.594 0 0 1 .816.137l.01.01.027.055a10.153 10.153 0 0 1 1.054 2.182c.165.477.349 1.339.34 1.907v3.742c0 .064-.01.156-.019.21a.576.576 0 0 1-.247.377.591.591 0 0 1-.44.091 1.253 1.253 0 0 1-.202-.064 829.92 829.92 0 0 0-3.485-1.348c-.532-.192-1.265-.67-1.65-1 0-.005-.004-.007-.009-.01l-.01-.008a10.616 10.616 0 0 1-1.632-1.751Zm6.575-2.09a9.91 9.91 0 0 0-.789-1.633 3.342 3.342 0 0 0-.449 1.962 7.252 7.252 0 0 1 1.238-.33ZM5.121 7.688a6.46 6.46 0 0 1 .761-1.036 3.265 3.265 0 0 0-1.999-.284c.376.477.789.926 1.238 1.32Zm9.876-1.696a6.515 6.515 0 0 1 2 .403 6.572 6.572 0 0 1 4.272 6.346v.11c-.091 1.935-.944 4.988-6.107 7.125-1.852.77-2.494 1.485-2.833 2.127a.631.631 0 0 1-.56.34.607.607 0 0 1-.458-.257 1.77 1.77 0 0 1-.11-.23c-2.1-5.74 3.897-9.692 7.226-10.398a.362.362 0 0 0 .293-.34.368.368 0 0 0-.348-.384c-.028 0-.055 0-.083.009a17.169 17.169 0 0 0-9.197 5.126 16.167 16.167 0 0 0-1.504 1.834c-.005.009-.012.018-.019.027l-.018.028c-.037.046-.082.082-.128.119a.56.56 0 0 1-.358.1.61.61 0 0 1-.468-.256.552.552 0 0 1-.091-.458v-.01l.013-.05a17.274 17.274 0 0 1 1.692-3.718c.065-.11.129-.22.202-.33a.6.6 0 0 0-.046-.78.598.598 0 0 0-.697-.11 17.096 17.096 0 0 0-3.65 1.98.145.145 0 0 0-.036.028.577.577 0 0 1-.358.101.607.607 0 0 1-.458-.257.593.593 0 0 1 0-.678l.032-.037.032-.037a26.05 26.05 0 0 1 3.255-3.264c.074.027.165.064.275.11.9.348 2.77 1.073 2.898 1.119.046.018.202.073.349.1a1.318 1.318 0 0 0 1.531-1.045c.028-.147.028-.32.028-.367V6.782c.043-.025.087-.046.127-.065l.056-.027a6.46 6.46 0 0 1 3.246-.697Zm-3.053 11.426c-.56 1.31-.606 2.686-.129 4.108.404-.642 1.155-1.43 3.072-2.229 0 0-1.87-.146-2.944-1.88Z" fill="#000"/></svg>