<svg width="24" height="24" viewBox="0 0 24 24" fill="none" xmlns="http://www.w3.org/2000/svg"><path d="M11.999 15c1.679 0 3.034-1.34 3.034-3V6c0-1.66-1.355-3-3.034-3-1.679 0-3.034 1.34-3.034 3v6c0 1.66 1.355 3 3.034 3Zm5.977-3c-.496 0-.91.36-.991.85C16.57 15.2 14.497 17 11.998 17c-2.498 0-4.571-1.8-4.986-4.15-.08-.49-.495-.85-.99-.85-.618 0-1.103.54-1.012 1.14.496 3 2.923 5.35 5.977 5.78V21c0 .55.455 1 1.01 1 .557 0 1.012-.45 1.012-1v-2.08c3.054-.43 5.481-2.78 5.977-5.78.101-.6-.395-1.14-1.011-1.14Z" fill="#000"/></svg>