<svg width="24" height="24" viewBox="0 0 24 24" fill="none" xmlns="http://www.w3.org/2000/svg"><path d="M8.273 8.06v8.423L6.17 16.48v-5.214L4.14 13.67l-1.989-2.458-.02 5.285H0V8.062h2.203l1.865 2.545L6.084 8.06l2.189-.001Zm8.628 2.07.025 6.334H14.56l-.008-2.87h-2.8c.07.498.21 1.265.417 1.78.155.381.298.75.583 1.128l-1.705 1.125c-.349-.636-.622-1.337-.877-2.082a9.294 9.294 0 0 1-.508-2.18c-.085-.75-.097-1.47.107-2.211.2-.72.604-1.368 1.161-1.866.313-.293.75-.5 1.1-.688.35-.187.743-.263 1.108-.359.391-.093.79-.154 1.19-.182.399-.035 1.108-.066 2.391-.029l.546 1.75H14.51c-.593.007-.878 0-1.34.208a2.236 2.236 0 0 0-1.279 1.922l2.663.033.038-1.81h2.31l-.001-.004Zm3.992-2.099v6.626l3.107.03-.43 1.776h-4.807V8l2.13.031Z" fill="#000"/></svg>