<svg width="24" height="24" viewBox="0 0 24 24" fill="none" xmlns="http://www.w3.org/2000/svg"><path d="m20.957 9.27.01-.06c.165-.62-.31-1.21-.96-1.21h-2.846l.722-2.79c.155-.62-.32-1.21-.97-1.21a.99.99 0 0 0-.97.73L15.099 8h-4.126l.722-2.79c.155-.62-.32-1.21-.97-1.21a.99.99 0 0 0-.97.73L8.91 8H5.567c-.464 0-.867.3-.97.73l-.02.06c-.155.62.32 1.21.97 1.21h2.846l-1.031 4H4.02a.99.99 0 0 0-.97.73l-.02.06c-.155.62.32 1.21.969 1.21h2.847l-.722 2.79c-.155.62.32 1.21.97 1.21a.99.99 0 0 0 .97-.73L8.908 16h4.126l-.722 2.79c-.155.62.32 1.21.97 1.21a.99.99 0 0 0 .969-.73l.846-3.27h3.342a.99.99 0 0 0 .97-.73l.01-.06c.154-.61-.32-1.21-.97-1.21h-2.836l1.031-4h3.342c.464 0 .867-.3.97-.73ZM13.55 14H9.425l1.031-4h4.126l-1.031 4Z" fill="#000"/></svg>