<svg width="24" height="24" viewBox="0 0 24 24" fill="none" xmlns="http://www.w3.org/2000/svg"><path d="M8 5c-.701-.64-1.92-1.534-3-2L4 4.5c1.099.524 2.356 1.36 3 2L8 5Zm-.5 5C6.818 9.36 5.099 8.446 4 8l-1 2c1.08.524 2.375.86 3 1.5L7.5 10ZM6 13c-.796 2.27-2.223 4.987-3 6.5l2 1c.834-1.92 1.799-3.925 2.5-6L6 13Zm6 2.5c-.417 1.28-1.128 2.649-2 3.502.493.291 1.083.649 1.5.998.872-1.028 1.988-2.429 2.5-4l-2-.5Zm1.5-4.5H18v1h-4.5v-1Zm0-2H18v1h-4.5V9Zm6.5 5.5-.004-7H16.5c.152-.504.31-.938.5-1.5h4V4H9v5c0 3.142-.486 7.772-2.608 10.778.549.252 1.496.854 1.894 1.222C10.541 17.8 11 12.414 11 9V6h3.5c-.057.504-.424.976-.5 1.5h-2l-.5 7h3.039v4.25c0 .213-.076.272-.284.272-.228 0-.61 0-1.255-.02V21c1.175.02 2.337-.19 3-.5.663-.31 1-.509 1-1.498l-.5-4.502H20ZM17.5 16a14.568 14.568 0 0 1 1.5 3.5l2-.5c-.322-1.047-1.261-2.836-2-4l-1.5 1Z" fill="#000"/></svg>