<svg width="24" height="24" viewBox="0 0 24 24" fill="none" xmlns="http://www.w3.org/2000/svg"><path d="M12 2.672V.585c0-.525-.607-.781-.956-.408L7.894 3.43a.592.592 0 0 0 0 .828l3.139 3.253c.36.361.967.105.967-.42V5.004c3.724 0 6.75 3.137 6.75 6.996 0 .921-.169 1.819-.495 2.623-.169.42-.045.898.259 1.213.573.595 1.541.385 1.845-.396A9.42 9.42 0 0 0 21 12c0-5.154-4.027-9.328-9-9.328Zm0 16.324c-3.724 0-6.75-3.136-6.75-6.996 0-.921.169-1.819.495-2.624.169-.42.045-.897-.259-1.212-.574-.595-1.541-.385-1.845.396A9.419 9.419 0 0 0 3 12c0 5.154 4.027 9.328 9 9.328v2.087c0 .525.607.781.956.408l3.139-3.253a.592.592 0 0 0 0-.828l-3.139-3.253c-.348-.361-.956-.105-.956.42v2.087Z" fill="#000"/></svg>