<svg width="24" height="24" viewBox="0 0 24 24" fill="none" xmlns="http://www.w3.org/2000/svg"><path fill-rule="evenodd" clip-rule="evenodd" d="M20.82 11.5A9.77 9.77 0 0 0 12 6c-.68 0-1.34.09-1.99.22L8.36 4.57C9.51 4.2 10.73 4 12 4c5 0 9.27 3.11 11 7.5-.69 1.76-1.79 3.3-3.18 4.53l-1.41-1.41c.99-.85 1.82-1.9 2.41-3.12ZM4.69 6.55 2.01 3.87l1.41-1.42 17.73 17.74-1.41 1.41-3.42-3.42c-1.34.53-2.8.82-4.32.82-5 0-9.27-3.11-11-7.5.77-1.97 2.06-3.67 3.69-4.95Zm3.17 3.17L6.11 7.97c-1.21.92-2.23 2.1-2.93 3.53A9.77 9.77 0 0 0 12 17c.95 0 1.87-.14 2.75-.38l-.98-.98-5.91-5.92Z" fill="#000"/></svg>