<svg width="24" height="24" viewBox="0 0 24 24" fill="none" xmlns="http://www.w3.org/2000/svg"><path fill-rule="evenodd" clip-rule="evenodd" d="M20.349 7.696a.521.521 0 0 1 .725-.022C22.638 9.124 24 10.918 24 12.1c0 1.633-2.598 4.438-4.738 5.882A12.982 12.982 0 0 1 12 20.2c-2.59 0-5.121-.773-7.262-2.218C2.598 16.538 0 13.733 0 12.1s2.6-4.436 4.74-5.88a12.994 12.994 0 0 1 13.646-.542.513.513 0 0 1 .102.811l-6.204 6.282a.533.533 0 0 1-.76 0L9.45 10.658a1.072 1.072 0 0 0-1.534 0 1.104 1.104 0 0 0 0 1.546l3.218 3.272c.424.43 1.11.43 1.534 0l7.682-7.781Z" fill="#000"/></svg>