<svg width="24" height="24" viewBox="0 0 24 24" fill="none" xmlns="http://www.w3.org/2000/svg"><path d="M19.995 5.37c-.249 2.81-1.329 9.642-1.877 12.79-.233 1.335-.698 1.78-1.13 1.833-.963.089-1.694-.676-2.624-1.334-1.462-1.032-2.293-1.672-3.705-2.669-1.645-1.156-.582-1.796.365-2.828.25-.267 4.502-4.412 4.586-4.786a.375.375 0 0 0-.084-.32c-.1-.089-.232-.053-.348-.036-.15.036-2.476 1.69-7.01 4.964-.665.48-1.263.73-1.795.711-.598-.017-1.728-.355-2.575-.658-1.047-.356-1.86-.551-1.794-1.174.033-.32.448-.64 1.23-.978 4.85-2.26 8.073-3.754 9.684-4.466C17.537 4.356 18.484 4 19.115 4c.133 0 .448.036.648.213a.725.725 0 0 1 .232.48c-.016.108.017.428 0 .677Z" fill="#000"/></svg>